<svg width="24" height="24" viewBox="0 0 24 24" fill="none" xmlns="http://www.w3.org/2000/svg">
<path d="M16.4 13.7C17.2201 13.0836 17.8828 12.2818 18.3336 11.3602C18.7845 10.4386 19.0108 9.4234 18.994 8.39756C18.9773 7.37172 18.7179 6.36442 18.2372 5.45805C17.7564 4.55168 17.0679 3.77198 16.2281 3.18273C15.3882 2.59348 14.4207 2.21142 13.4048 2.06779C12.389 1.92416 11.3535 2.02305 10.3832 2.35637C9.41289 2.68968 8.53525 3.24795 7.82207 3.98552C7.1089 4.72309 6.58045 5.61901 6.27996 6.59999C5.17996 9.72999 5.49996 10.5 3.09996 12.68C2.62172 13.0721 2.27633 13.6023 2.11106 14.1983C1.9458 14.7942 1.96873 15.4266 2.17673 16.009C2.38472 16.5914 2.76761 17.0953 3.27299 17.4517C3.77837 17.8081 4.38154 17.9996 4.99996 18C8.99996 18 13.4 16.2 16.4 13.7Z" stroke="#D76261" stroke-width="2" stroke-linecap="round" stroke-linejoin="round"/>
<path d="M18.4999 6L20.6899 10.5C21.1091 11.7889 21.1136 13.1767 20.7028 14.4683C20.292 15.7598 19.4866 16.8901 18.3999 17.7C15.3999 20.2 10.9999 22 6.9999 22C6.44315 21.9992 5.8976 21.8436 5.42429 21.5504C4.95098 21.2572 4.56858 20.8381 4.3199 20.34L2.3999 16.5" stroke="#D76261" stroke-width="2" stroke-linecap="round" stroke-linejoin="round"/>
<path d="M12.5 11C13.8807 11 15 9.88071 15 8.5C15 7.11929 13.8807 6 12.5 6C11.1193 6 10 7.11929 10 8.5C10 9.88071 11.1193 11 12.5 11Z" stroke="#D76261" stroke-width="2" stroke-linecap="round" stroke-linejoin="round"/>
</svg>
