<svg width="25" height="24" viewBox="0 0 25 24" fill="none" xmlns="http://www.w3.org/2000/svg">
<path d="M17.4999 20.9999C17.7651 20.9999 18.0195 20.8946 18.207 20.707C18.3945 20.5195 18.4999 20.2651 18.4999 19.9999V14.6499C18.4999 14.1929 18.8159 13.8059 19.2269 13.6089C20.0779 13.203 20.7581 12.5095 21.1475 11.6508C21.537 10.7921 21.6105 9.82351 21.3553 8.91586C21.1001 8.00822 20.5325 7.21991 19.7526 6.69005C18.9727 6.16019 18.0307 5.92285 17.0929 6.01991C16.7067 5.12211 16.0658 4.3572 15.2495 3.81974C14.4332 3.28229 13.4772 2.99585 12.4999 2.99585C11.5226 2.99585 10.5666 3.28229 9.75033 3.81974C8.93403 4.3572 8.29314 5.12211 7.9069 6.01991C6.96948 5.92353 6.02814 6.16121 5.24883 6.69104C4.46953 7.22088 3.90231 8.00884 3.64718 8.91601C3.39206 9.82317 3.46541 10.7913 3.8543 11.6497C4.2432 12.508 4.92266 13.2015 5.7729 13.6079C6.1839 13.8059 6.4999 14.1929 6.4999 14.6489V19.9999C6.4999 20.2651 6.60526 20.5195 6.79279 20.707C6.98033 20.8946 7.23468 20.9999 7.4999 20.9999H17.4999Z" stroke="white" stroke-width="2" stroke-linecap="round" stroke-linejoin="round"/>
<path d="M6.5 17H18.5" stroke="white" stroke-width="2" stroke-linecap="round" stroke-linejoin="round"/>
</svg>
