<svg width="361" height="24" viewBox="0 0 361 24" fill="none" xmlns="http://www.w3.org/2000/svg">
<rect x="147.343" y="12.5" width="147.343" height="1" rx="0.5" transform="rotate(-180 147.343 12.5)" fill="url(#paint0_linear_58_2987)"/>
<rect x="155.343" y="12" width="4" height="4" rx="1" transform="rotate(-45 155.343 12)" fill="#2B2E33"/>
<path d="M186.737 6.50525H185.763V5.48811C185.765 4.76635 185.63 4.05127 185.366 3.38427C185.102 2.71728 184.713 2.11161 184.223 1.60234C180.973 -1.84291 175.206 0.643603 175.237 5.4882L175.237 6.50525H174.263C172.867 6.50525 171.528 7.08393 170.541 8.11398C169.554 9.14403 169 10.5411 169 11.9978C169 13.4545 169.554 14.8515 170.541 15.8816C171.528 16.9116 172.867 17.4903 174.263 17.4903H175.237V18.5075C175.237 19.9642 175.792 21.3612 176.779 22.3913C177.766 23.4213 179.104 24 180.5 24C181.896 24 183.234 23.4213 184.221 22.3913C185.208 21.3612 185.763 19.9642 185.763 18.5075V17.4903H186.737C188.133 17.4903 189.472 16.9116 190.459 15.8816C191.446 14.8515 192 13.4545 192 11.9978C192 10.5411 191.446 9.14403 190.459 8.11398C189.472 7.08393 188.133 6.50525 186.737 6.50525ZM176.407 5.48811C176.405 4.92625 176.51 4.36965 176.716 3.85017C176.921 3.33069 177.222 2.85855 177.602 2.46078C177.982 2.06301 178.434 1.74742 178.931 1.5321C179.429 1.31677 179.962 1.20594 180.5 1.20594C181.038 1.20594 181.571 1.31678 182.069 1.53211C182.566 1.74744 183.018 2.06302 183.398 2.4608C183.778 2.85857 184.079 3.33071 184.284 3.85019C184.49 4.36967 184.594 4.92628 184.593 5.48814L184.593 6.50525H183.424V5.48811C183.287 1.44989 177.713 1.45021 177.576 5.48816V13.8286H176.407V5.48811ZM182.254 5.48811V6.50525H178.746V5.48811C178.746 5.00254 178.931 4.53686 179.26 4.19351C179.589 3.85016 180.035 3.65727 180.5 3.65727C180.965 3.65727 181.411 3.85016 181.74 4.19351C182.069 4.53686 182.254 5.00254 182.254 5.48811ZM178.746 10.1669H182.254V13.8286H178.746V10.1669ZM174.263 16.2698C173.177 16.2698 172.136 15.8197 171.368 15.0185C170.601 14.2174 170.169 13.1308 170.169 11.9978C170.169 10.8648 170.601 9.7782 171.368 8.97705C172.136 8.1759 173.177 7.72581 174.263 7.72581H175.237V8.94638H174.263C170.394 9.08931 170.394 14.9065 174.263 15.0492H182.254V16.2698H174.263ZM175.237 10.1669V13.8286H174.263C173.8 13.8243 173.358 13.6295 173.032 13.2866C172.707 12.9437 172.524 12.4805 172.524 11.9978C172.524 11.515 172.707 11.0518 173.032 10.7089C173.358 10.366 173.8 10.1713 174.263 10.1669H175.237ZM182.254 17.4903V18.5075C182.254 18.993 182.069 19.4587 181.74 19.8021C181.411 20.1454 180.965 20.3383 180.5 20.3383C180.035 20.3383 179.589 20.1454 179.26 19.8021C178.931 19.4587 178.746 18.993 178.746 18.5075V17.4903H182.254ZM184.593 18.5075C184.593 19.6405 184.162 20.7271 183.394 21.5282C182.627 22.3294 181.586 22.7794 180.5 22.7794C179.414 22.7794 178.373 22.3294 177.606 21.5282C176.838 20.7271 176.407 19.6405 176.407 18.5075V17.4903H177.576V18.5075C177.713 22.5455 183.287 22.5455 183.424 18.5074V10.1669H184.593V18.5075ZM189.634 15.0206C189.254 15.4183 188.802 15.7335 188.305 15.9479C187.808 16.1623 187.275 16.2717 186.737 16.2698H185.763V15.0492H186.737C187.513 15.0492 188.256 14.7277 188.805 14.1555C189.353 13.5832 189.661 12.8071 189.661 11.9978C189.661 11.1885 189.353 10.4124 188.805 9.84012C188.256 9.26787 187.513 8.94638 186.737 8.94638H178.746V7.72581H186.737C190.347 7.70083 192.201 12.382 189.634 15.0206ZM185.763 13.8286V10.1669H186.737C187.2 10.1713 187.642 10.3661 187.968 10.709C188.293 11.0518 188.476 11.5151 188.476 11.9978C188.476 12.4806 188.293 12.9438 187.968 13.2867C187.642 13.6295 187.2 13.8243 186.737 13.8286H185.763Z" fill="#2B2E33"/>
<rect x="200" y="12" width="4" height="4" rx="1" transform="rotate(-45 200 12)" fill="#2B2E33"/>
<rect x="213.657" y="11.5" width="147.343" height="1" rx="0.5" fill="url(#paint1_linear_58_2987)"/>
<defs>
<linearGradient id="paint0_linear_58_2987" x1="147.343" y1="13" x2="294.686" y2="13" gradientUnits="userSpaceOnUse">
<stop stop-color="#2B2E33"/>
<stop offset="0.346154" stop-color="#2B2E33" stop-opacity="0.932692"/>
<stop offset="1" stop-color="#2B2E33" stop-opacity="0"/>
</linearGradient>
<linearGradient id="paint1_linear_58_2987" x1="213.657" y1="12" x2="361" y2="12" gradientUnits="userSpaceOnUse">
<stop stop-color="#2B2E33"/>
<stop offset="0.346154" stop-color="#2B2E33" stop-opacity="0.932692"/>
<stop offset="1" stop-color="#2B2E33" stop-opacity="0"/>
</linearGradient>
</defs>
</svg>
